<?xml version="1.0" encoding="UTF-8" standalone="no" ?>
<!DOCTYPE svg PUBLIC "-//W3C//DTD SVG 1.1//EN" "http://www.w3.org/Graphics/SVG/1.1/DTD/svg11.dtd">
<svg xmlns="http://www.w3.org/2000/svg" xmlns:xlink="http://www.w3.org/1999/xlink" version="1.1" width="600" height="600" viewBox="0 0 600 600" xml:space="preserve">
<desc>Created with Fabric.js 4.0.0-beta.8</desc>
    <defs>
</defs>
    <g transform="matrix(1 0 0 1 300.5 300.5)"  >
<rect style="stroke: none; stroke-width: 1; stroke-dasharray: none; stroke-linecap: butt; stroke-dashoffset: 0; stroke-linejoin: miter; stroke-miterlimit: 4; fill: rgb(255,255,255); fill-opacity: 0; fill-rule: nonzero; opacity: 1;"  x="-300" y="-300" rx="0" ry="0" width="600" height="600" />
</g>
    <g transform="matrix(2.27 0 0 2.27 60 60)"  >
<path style="stroke: none; stroke-width: 1; stroke-dasharray: none; stroke-linecap: butt; stroke-dashoffset: 0; stroke-linejoin: miter; stroke-miterlimit: 4; fill: rgb(0,0,0); fill-opacity: 0.03; fill-rule: evenodd; opacity: 1;"  transform=" translate(-12, -12)" d="M 23 6.066 v 12.065 l -11.001 5.869 l -11 -5.869 v -12.131 l 11 -6 l 11.001 6.066 z m -21.001 11.465 l 9.5 5.069 v -10.57 l -9.5 -4.946 v 10.447 z m 20.001 -10.388 l -9.501 4.889 v 10.568 l 9.501 -5.069 v -10.388 z m -5.52 1.716 l -9.534 -4.964 l -4.349 2.373 l 9.404 4.896 l 4.479 -2.305 z m -8.476 -5.541 l 9.565 4.98 l 3.832 -1.972 l -9.405 -5.185 l -3.992 2.177 z" stroke-linecap="round" />
</g>
    <g transform="matrix(2.08 0 0 2.08 156 60)"  >
<path style="stroke: none; stroke-width: 1; stroke-dasharray: none; stroke-linecap: butt; stroke-dashoffset: 0; stroke-linejoin: miter; stroke-miterlimit: 4; fill: rgb(0,0,0); fill-opacity: 0.03; fill-rule: evenodd; opacity: 1;"  transform=" translate(-12, -12)" d="M 2.978 8.358 l -2.978 -2.618 l 8.707 -4.74 l 3.341 2.345 l 3.21 -2.345 l 8.742 4.639 l -3.014 2.68 l 0.014 0.008 l 3 4.115 l -3 1.634 v 4.122 l -9 4.802 l -9 -4.802 v -4.115 l 1 0.544 v 2.971 l 7.501 4.002 v -7.889 l -2.501 3.634 l -9 -4.893 l 2.978 -4.094 z m 9.523 5.366 v 7.875 l 7.499 -4.001 v -2.977 l -5 2.724 l -2.499 -3.621 z m -11.022 -1.606 l 7.208 3.918 l 1.847 -2.684 l -7.231 -3.742 l -1.824 2.508 z m 11.989 1.247 l 1.844 2.671 l 7.208 -3.927 l -1.822 -2.498 l -7.23 3.754 z m -9.477 -4.525 l 8.01 -4.43 l 7.999 4.437 l -7.971 4.153 l -8.038 -4.16 z m -2.256 -2.906 l 2.106 1.851 l 7.16 -3.953 l -2.361 -1.657 l -6.905 3.759 z m 11.273 -2.052 l 7.076 3.901 l 2.176 -1.935 l -6.918 -3.671 l -2.334 1.705 z" stroke-linecap="round" />
</g>
    <g transform="matrix(2.27 0 0 2.27 252 60)"  >
<path style="stroke: none; stroke-width: 1; stroke-dasharray: none; stroke-linecap: butt; stroke-dashoffset: 0; stroke-linejoin: miter; stroke-miterlimit: 4; fill: rgb(0,0,0); fill-opacity: 0.03; fill-rule: evenodd; opacity: 1;"  transform=" translate(-12, -12)" d="M 23 6.066 v 12.065 l -11.001 5.869 l -11 -5.869 v -12.131 l 11 -6 l 11.001 6.066 z m -21.001 11.465 l 9.5 5.069 v -10.57 l -9.5 -4.946 v 10.447 z m 20.001 -10.388 l -9.501 4.889 v 10.568 l 9.501 -5.069 v -10.388 z m -5.52 1.716 l -9.534 -4.964 l -4.349 2.373 l 9.404 4.896 l 4.479 -2.305 z m -8.476 -5.541 l 9.565 4.98 l 3.832 -1.972 l -9.405 -5.185 l -3.992 2.177 z" stroke-linecap="round" />
</g>
    <g transform="matrix(2.08 0 0 2.08 348 60)"  >
<path style="stroke: none; stroke-width: 1; stroke-dasharray: none; stroke-linecap: butt; stroke-dashoffset: 0; stroke-linejoin: miter; stroke-miterlimit: 4; fill: rgb(0,0,0); fill-opacity: 0.03; fill-rule: evenodd; opacity: 1;"  transform=" translate(-12, -12)" d="M 2.978 8.358 l -2.978 -2.618 l 8.707 -4.74 l 3.341 2.345 l 3.21 -2.345 l 8.742 4.639 l -3.014 2.68 l 0.014 0.008 l 3 4.115 l -3 1.634 v 4.122 l -9 4.802 l -9 -4.802 v -4.115 l 1 0.544 v 2.971 l 7.501 4.002 v -7.889 l -2.501 3.634 l -9 -4.893 l 2.978 -4.094 z m 9.523 5.366 v 7.875 l 7.499 -4.001 v -2.977 l -5 2.724 l -2.499 -3.621 z m -11.022 -1.606 l 7.208 3.918 l 1.847 -2.684 l -7.231 -3.742 l -1.824 2.508 z m 11.989 1.247 l 1.844 2.671 l 7.208 -3.927 l -1.822 -2.498 l -7.23 3.754 z m -9.477 -4.525 l 8.01 -4.43 l 7.999 4.437 l -7.971 4.153 l -8.038 -4.16 z m -2.256 -2.906 l 2.106 1.851 l 7.16 -3.953 l -2.361 -1.657 l -6.905 3.759 z m 11.273 -2.052 l 7.076 3.901 l 2.176 -1.935 l -6.918 -3.671 l -2.334 1.705 z" stroke-linecap="round" />
</g>
    <g transform="matrix(2.27 0 0 2.27 444 60)"  >
<path style="stroke: none; stroke-width: 1; stroke-dasharray: none; stroke-linecap: butt; stroke-dashoffset: 0; stroke-linejoin: miter; stroke-miterlimit: 4; fill: rgb(0,0,0); fill-opacity: 0.03; fill-rule: evenodd; opacity: 1;"  transform=" translate(-12, -12)" d="M 23 6.066 v 12.065 l -11.001 5.869 l -11 -5.869 v -12.131 l 11 -6 l 11.001 6.066 z m -21.001 11.465 l 9.5 5.069 v -10.57 l -9.5 -4.946 v 10.447 z m 20.001 -10.388 l -9.501 4.889 v 10.568 l 9.501 -5.069 v -10.388 z m -5.52 1.716 l -9.534 -4.964 l -4.349 2.373 l 9.404 4.896 l 4.479 -2.305 z m -8.476 -5.541 l 9.565 4.98 l 3.832 -1.972 l -9.405 -5.185 l -3.992 2.177 z" stroke-linecap="round" />
</g>
    <g transform="matrix(2.08 0 0 2.08 540 60)"  >
<path style="stroke: none; stroke-width: 1; stroke-dasharray: none; stroke-linecap: butt; stroke-dashoffset: 0; stroke-linejoin: miter; stroke-miterlimit: 4; fill: rgb(0,0,0); fill-opacity: 0.03; fill-rule: evenodd; opacity: 1;"  transform=" translate(-12, -12)" d="M 2.978 8.358 l -2.978 -2.618 l 8.707 -4.74 l 3.341 2.345 l 3.21 -2.345 l 8.742 4.639 l -3.014 2.68 l 0.014 0.008 l 3 4.115 l -3 1.634 v 4.122 l -9 4.802 l -9 -4.802 v -4.115 l 1 0.544 v 2.971 l 7.501 4.002 v -7.889 l -2.501 3.634 l -9 -4.893 l 2.978 -4.094 z m 9.523 5.366 v 7.875 l 7.499 -4.001 v -2.977 l -5 2.724 l -2.499 -3.621 z m -11.022 -1.606 l 7.208 3.918 l 1.847 -2.684 l -7.231 -3.742 l -1.824 2.508 z m 11.989 1.247 l 1.844 2.671 l 7.208 -3.927 l -1.822 -2.498 l -7.23 3.754 z m -9.477 -4.525 l 8.01 -4.43 l 7.999 4.437 l -7.971 4.153 l -8.038 -4.16 z m -2.256 -2.906 l 2.106 1.851 l 7.16 -3.953 l -2.361 -1.657 l -6.905 3.759 z m 11.273 -2.052 l 7.076 3.901 l 2.176 -1.935 l -6.918 -3.671 l -2.334 1.705 z" stroke-linecap="round" />
</g>
    <g transform="matrix(2.27 0 0 2.27 108 156)"  >
<path style="stroke: none; stroke-width: 1; stroke-dasharray: none; stroke-linecap: butt; stroke-dashoffset: 0; stroke-linejoin: miter; stroke-miterlimit: 4; fill: rgb(0,0,0); fill-opacity: 0.03; fill-rule: evenodd; opacity: 1;"  transform=" translate(-12, -12)" d="M 23 6.066 v 12.065 l -11.001 5.869 l -11 -5.869 v -12.131 l 11 -6 l 11.001 6.066 z m -21.001 11.465 l 9.5 5.069 v -10.57 l -9.5 -4.946 v 10.447 z m 20.001 -10.388 l -9.501 4.889 v 10.568 l 9.501 -5.069 v -10.388 z m -5.52 1.716 l -9.534 -4.964 l -4.349 2.373 l 9.404 4.896 l 4.479 -2.305 z m -8.476 -5.541 l 9.565 4.98 l 3.832 -1.972 l -9.405 -5.185 l -3.992 2.177 z" stroke-linecap="round" />
</g>
    <g transform="matrix(2.08 0 0 2.08 204 156)"  >
<path style="stroke: none; stroke-width: 1; stroke-dasharray: none; stroke-linecap: butt; stroke-dashoffset: 0; stroke-linejoin: miter; stroke-miterlimit: 4; fill: rgb(0,0,0); fill-opacity: 0.03; fill-rule: evenodd; opacity: 1;"  transform=" translate(-12, -12)" d="M 2.978 8.358 l -2.978 -2.618 l 8.707 -4.74 l 3.341 2.345 l 3.21 -2.345 l 8.742 4.639 l -3.014 2.68 l 0.014 0.008 l 3 4.115 l -3 1.634 v 4.122 l -9 4.802 l -9 -4.802 v -4.115 l 1 0.544 v 2.971 l 7.501 4.002 v -7.889 l -2.501 3.634 l -9 -4.893 l 2.978 -4.094 z m 9.523 5.366 v 7.875 l 7.499 -4.001 v -2.977 l -5 2.724 l -2.499 -3.621 z m -11.022 -1.606 l 7.208 3.918 l 1.847 -2.684 l -7.231 -3.742 l -1.824 2.508 z m 11.989 1.247 l 1.844 2.671 l 7.208 -3.927 l -1.822 -2.498 l -7.23 3.754 z m -9.477 -4.525 l 8.01 -4.43 l 7.999 4.437 l -7.971 4.153 l -8.038 -4.16 z m -2.256 -2.906 l 2.106 1.851 l 7.16 -3.953 l -2.361 -1.657 l -6.905 3.759 z m 11.273 -2.052 l 7.076 3.901 l 2.176 -1.935 l -6.918 -3.671 l -2.334 1.705 z" stroke-linecap="round" />
</g>
    <g transform="matrix(2.27 0 0 2.27 300 156)"  >
<path style="stroke: none; stroke-width: 1; stroke-dasharray: none; stroke-linecap: butt; stroke-dashoffset: 0; stroke-linejoin: miter; stroke-miterlimit: 4; fill: rgb(0,0,0); fill-opacity: 0.03; fill-rule: evenodd; opacity: 1;"  transform=" translate(-12, -12)" d="M 23 6.066 v 12.065 l -11.001 5.869 l -11 -5.869 v -12.131 l 11 -6 l 11.001 6.066 z m -21.001 11.465 l 9.5 5.069 v -10.57 l -9.5 -4.946 v 10.447 z m 20.001 -10.388 l -9.501 4.889 v 10.568 l 9.501 -5.069 v -10.388 z m -5.52 1.716 l -9.534 -4.964 l -4.349 2.373 l 9.404 4.896 l 4.479 -2.305 z m -8.476 -5.541 l 9.565 4.98 l 3.832 -1.972 l -9.405 -5.185 l -3.992 2.177 z" stroke-linecap="round" />
</g>
    <g transform="matrix(2.08 0 0 2.08 396 156)"  >
<path style="stroke: none; stroke-width: 1; stroke-dasharray: none; stroke-linecap: butt; stroke-dashoffset: 0; stroke-linejoin: miter; stroke-miterlimit: 4; fill: rgb(0,0,0); fill-opacity: 0.03; fill-rule: evenodd; opacity: 1;"  transform=" translate(-12, -12)" d="M 2.978 8.358 l -2.978 -2.618 l 8.707 -4.74 l 3.341 2.345 l 3.21 -2.345 l 8.742 4.639 l -3.014 2.68 l 0.014 0.008 l 3 4.115 l -3 1.634 v 4.122 l -9 4.802 l -9 -4.802 v -4.115 l 1 0.544 v 2.971 l 7.501 4.002 v -7.889 l -2.501 3.634 l -9 -4.893 l 2.978 -4.094 z m 9.523 5.366 v 7.875 l 7.499 -4.001 v -2.977 l -5 2.724 l -2.499 -3.621 z m -11.022 -1.606 l 7.208 3.918 l 1.847 -2.684 l -7.231 -3.742 l -1.824 2.508 z m 11.989 1.247 l 1.844 2.671 l 7.208 -3.927 l -1.822 -2.498 l -7.23 3.754 z m -9.477 -4.525 l 8.01 -4.43 l 7.999 4.437 l -7.971 4.153 l -8.038 -4.16 z m -2.256 -2.906 l 2.106 1.851 l 7.16 -3.953 l -2.361 -1.657 l -6.905 3.759 z m 11.273 -2.052 l 7.076 3.901 l 2.176 -1.935 l -6.918 -3.671 l -2.334 1.705 z" stroke-linecap="round" />
</g>
    <g transform="matrix(2.27 0 0 2.27 492 156)"  >
<path style="stroke: none; stroke-width: 1; stroke-dasharray: none; stroke-linecap: butt; stroke-dashoffset: 0; stroke-linejoin: miter; stroke-miterlimit: 4; fill: rgb(0,0,0); fill-opacity: 0.03; fill-rule: evenodd; opacity: 1;"  transform=" translate(-12, -12)" d="M 23 6.066 v 12.065 l -11.001 5.869 l -11 -5.869 v -12.131 l 11 -6 l 11.001 6.066 z m -21.001 11.465 l 9.5 5.069 v -10.57 l -9.5 -4.946 v 10.447 z m 20.001 -10.388 l -9.501 4.889 v 10.568 l 9.501 -5.069 v -10.388 z m -5.52 1.716 l -9.534 -4.964 l -4.349 2.373 l 9.404 4.896 l 4.479 -2.305 z m -8.476 -5.541 l 9.565 4.98 l 3.832 -1.972 l -9.405 -5.185 l -3.992 2.177 z" stroke-linecap="round" />
</g>
    <g transform="matrix(2.08 0 0 2.08 60 252)"  >
<path style="stroke: none; stroke-width: 1; stroke-dasharray: none; stroke-linecap: butt; stroke-dashoffset: 0; stroke-linejoin: miter; stroke-miterlimit: 4; fill: rgb(0,0,0); fill-opacity: 0.03; fill-rule: evenodd; opacity: 1;"  transform=" translate(-12, -12)" d="M 2.978 8.358 l -2.978 -2.618 l 8.707 -4.74 l 3.341 2.345 l 3.21 -2.345 l 8.742 4.639 l -3.014 2.68 l 0.014 0.008 l 3 4.115 l -3 1.634 v 4.122 l -9 4.802 l -9 -4.802 v -4.115 l 1 0.544 v 2.971 l 7.501 4.002 v -7.889 l -2.501 3.634 l -9 -4.893 l 2.978 -4.094 z m 9.523 5.366 v 7.875 l 7.499 -4.001 v -2.977 l -5 2.724 l -2.499 -3.621 z m -11.022 -1.606 l 7.208 3.918 l 1.847 -2.684 l -7.231 -3.742 l -1.824 2.508 z m 11.989 1.247 l 1.844 2.671 l 7.208 -3.927 l -1.822 -2.498 l -7.23 3.754 z m -9.477 -4.525 l 8.01 -4.43 l 7.999 4.437 l -7.971 4.153 l -8.038 -4.16 z m -2.256 -2.906 l 2.106 1.851 l 7.16 -3.953 l -2.361 -1.657 l -6.905 3.759 z m 11.273 -2.052 l 7.076 3.901 l 2.176 -1.935 l -6.918 -3.671 l -2.334 1.705 z" stroke-linecap="round" />
</g>
    <g transform="matrix(2.27 0 0 2.27 156 252)"  >
<path style="stroke: none; stroke-width: 1; stroke-dasharray: none; stroke-linecap: butt; stroke-dashoffset: 0; stroke-linejoin: miter; stroke-miterlimit: 4; fill: rgb(0,0,0); fill-opacity: 0.03; fill-rule: evenodd; opacity: 1;"  transform=" translate(-12, -12)" d="M 23 6.066 v 12.065 l -11.001 5.869 l -11 -5.869 v -12.131 l 11 -6 l 11.001 6.066 z m -21.001 11.465 l 9.5 5.069 v -10.57 l -9.5 -4.946 v 10.447 z m 20.001 -10.388 l -9.501 4.889 v 10.568 l 9.501 -5.069 v -10.388 z m -5.52 1.716 l -9.534 -4.964 l -4.349 2.373 l 9.404 4.896 l 4.479 -2.305 z m -8.476 -5.541 l 9.565 4.98 l 3.832 -1.972 l -9.405 -5.185 l -3.992 2.177 z" stroke-linecap="round" />
</g>
    <g transform="matrix(2.08 0 0 2.08 252 252)"  >
<path style="stroke: none; stroke-width: 1; stroke-dasharray: none; stroke-linecap: butt; stroke-dashoffset: 0; stroke-linejoin: miter; stroke-miterlimit: 4; fill: rgb(0,0,0); fill-opacity: 0.03; fill-rule: evenodd; opacity: 1;"  transform=" translate(-12, -12)" d="M 2.978 8.358 l -2.978 -2.618 l 8.707 -4.74 l 3.341 2.345 l 3.21 -2.345 l 8.742 4.639 l -3.014 2.68 l 0.014 0.008 l 3 4.115 l -3 1.634 v 4.122 l -9 4.802 l -9 -4.802 v -4.115 l 1 0.544 v 2.971 l 7.501 4.002 v -7.889 l -2.501 3.634 l -9 -4.893 l 2.978 -4.094 z m 9.523 5.366 v 7.875 l 7.499 -4.001 v -2.977 l -5 2.724 l -2.499 -3.621 z m -11.022 -1.606 l 7.208 3.918 l 1.847 -2.684 l -7.231 -3.742 l -1.824 2.508 z m 11.989 1.247 l 1.844 2.671 l 7.208 -3.927 l -1.822 -2.498 l -7.23 3.754 z m -9.477 -4.525 l 8.01 -4.43 l 7.999 4.437 l -7.971 4.153 l -8.038 -4.16 z m -2.256 -2.906 l 2.106 1.851 l 7.16 -3.953 l -2.361 -1.657 l -6.905 3.759 z m 11.273 -2.052 l 7.076 3.901 l 2.176 -1.935 l -6.918 -3.671 l -2.334 1.705 z" stroke-linecap="round" />
</g>
    <g transform="matrix(2.27 0 0 2.27 348 252)"  >
<path style="stroke: none; stroke-width: 1; stroke-dasharray: none; stroke-linecap: butt; stroke-dashoffset: 0; stroke-linejoin: miter; stroke-miterlimit: 4; fill: rgb(0,0,0); fill-opacity: 0.03; fill-rule: evenodd; opacity: 1;"  transform=" translate(-12, -12)" d="M 23 6.066 v 12.065 l -11.001 5.869 l -11 -5.869 v -12.131 l 11 -6 l 11.001 6.066 z m -21.001 11.465 l 9.5 5.069 v -10.57 l -9.5 -4.946 v 10.447 z m 20.001 -10.388 l -9.501 4.889 v 10.568 l 9.501 -5.069 v -10.388 z m -5.52 1.716 l -9.534 -4.964 l -4.349 2.373 l 9.404 4.896 l 4.479 -2.305 z m -8.476 -5.541 l 9.565 4.98 l 3.832 -1.972 l -9.405 -5.185 l -3.992 2.177 z" stroke-linecap="round" />
</g>
    <g transform="matrix(2.08 0 0 2.08 444 252)"  >
<path style="stroke: none; stroke-width: 1; stroke-dasharray: none; stroke-linecap: butt; stroke-dashoffset: 0; stroke-linejoin: miter; stroke-miterlimit: 4; fill: rgb(0,0,0); fill-opacity: 0.03; fill-rule: evenodd; opacity: 1;"  transform=" translate(-12, -12)" d="M 2.978 8.358 l -2.978 -2.618 l 8.707 -4.74 l 3.341 2.345 l 3.21 -2.345 l 8.742 4.639 l -3.014 2.68 l 0.014 0.008 l 3 4.115 l -3 1.634 v 4.122 l -9 4.802 l -9 -4.802 v -4.115 l 1 0.544 v 2.971 l 7.501 4.002 v -7.889 l -2.501 3.634 l -9 -4.893 l 2.978 -4.094 z m 9.523 5.366 v 7.875 l 7.499 -4.001 v -2.977 l -5 2.724 l -2.499 -3.621 z m -11.022 -1.606 l 7.208 3.918 l 1.847 -2.684 l -7.231 -3.742 l -1.824 2.508 z m 11.989 1.247 l 1.844 2.671 l 7.208 -3.927 l -1.822 -2.498 l -7.23 3.754 z m -9.477 -4.525 l 8.01 -4.43 l 7.999 4.437 l -7.971 4.153 l -8.038 -4.16 z m -2.256 -2.906 l 2.106 1.851 l 7.16 -3.953 l -2.361 -1.657 l -6.905 3.759 z m 11.273 -2.052 l 7.076 3.901 l 2.176 -1.935 l -6.918 -3.671 l -2.334 1.705 z" stroke-linecap="round" />
</g>
    <g transform="matrix(2.27 0 0 2.27 540 252)"  >
<path style="stroke: none; stroke-width: 1; stroke-dasharray: none; stroke-linecap: butt; stroke-dashoffset: 0; stroke-linejoin: miter; stroke-miterlimit: 4; fill: rgb(0,0,0); fill-opacity: 0.03; fill-rule: evenodd; opacity: 1;"  transform=" translate(-12, -12)" d="M 23 6.066 v 12.065 l -11.001 5.869 l -11 -5.869 v -12.131 l 11 -6 l 11.001 6.066 z m -21.001 11.465 l 9.5 5.069 v -10.57 l -9.5 -4.946 v 10.447 z m 20.001 -10.388 l -9.501 4.889 v 10.568 l 9.501 -5.069 v -10.388 z m -5.52 1.716 l -9.534 -4.964 l -4.349 2.373 l 9.404 4.896 l 4.479 -2.305 z m -8.476 -5.541 l 9.565 4.98 l 3.832 -1.972 l -9.405 -5.185 l -3.992 2.177 z" stroke-linecap="round" />
</g>
    <g transform="matrix(2.08 0 0 2.08 108 348)"  >
<path style="stroke: none; stroke-width: 1; stroke-dasharray: none; stroke-linecap: butt; stroke-dashoffset: 0; stroke-linejoin: miter; stroke-miterlimit: 4; fill: rgb(0,0,0); fill-opacity: 0.03; fill-rule: evenodd; opacity: 1;"  transform=" translate(-12, -12)" d="M 2.978 8.358 l -2.978 -2.618 l 8.707 -4.74 l 3.341 2.345 l 3.21 -2.345 l 8.742 4.639 l -3.014 2.68 l 0.014 0.008 l 3 4.115 l -3 1.634 v 4.122 l -9 4.802 l -9 -4.802 v -4.115 l 1 0.544 v 2.971 l 7.501 4.002 v -7.889 l -2.501 3.634 l -9 -4.893 l 2.978 -4.094 z m 9.523 5.366 v 7.875 l 7.499 -4.001 v -2.977 l -5 2.724 l -2.499 -3.621 z m -11.022 -1.606 l 7.208 3.918 l 1.847 -2.684 l -7.231 -3.742 l -1.824 2.508 z m 11.989 1.247 l 1.844 2.671 l 7.208 -3.927 l -1.822 -2.498 l -7.23 3.754 z m -9.477 -4.525 l 8.01 -4.43 l 7.999 4.437 l -7.971 4.153 l -8.038 -4.16 z m -2.256 -2.906 l 2.106 1.851 l 7.16 -3.953 l -2.361 -1.657 l -6.905 3.759 z m 11.273 -2.052 l 7.076 3.901 l 2.176 -1.935 l -6.918 -3.671 l -2.334 1.705 z" stroke-linecap="round" />
</g>
    <g transform="matrix(2.27 0 0 2.27 204 348)"  >
<path style="stroke: none; stroke-width: 1; stroke-dasharray: none; stroke-linecap: butt; stroke-dashoffset: 0; stroke-linejoin: miter; stroke-miterlimit: 4; fill: rgb(0,0,0); fill-opacity: 0.03; fill-rule: evenodd; opacity: 1;"  transform=" translate(-12, -12)" d="M 23 6.066 v 12.065 l -11.001 5.869 l -11 -5.869 v -12.131 l 11 -6 l 11.001 6.066 z m -21.001 11.465 l 9.5 5.069 v -10.57 l -9.5 -4.946 v 10.447 z m 20.001 -10.388 l -9.501 4.889 v 10.568 l 9.501 -5.069 v -10.388 z m -5.52 1.716 l -9.534 -4.964 l -4.349 2.373 l 9.404 4.896 l 4.479 -2.305 z m -8.476 -5.541 l 9.565 4.98 l 3.832 -1.972 l -9.405 -5.185 l -3.992 2.177 z" stroke-linecap="round" />
</g>
    <g transform="matrix(2.08 0 0 2.08 300 348)"  >
<path style="stroke: none; stroke-width: 1; stroke-dasharray: none; stroke-linecap: butt; stroke-dashoffset: 0; stroke-linejoin: miter; stroke-miterlimit: 4; fill: rgb(0,0,0); fill-opacity: 0.03; fill-rule: evenodd; opacity: 1;"  transform=" translate(-12, -12)" d="M 2.978 8.358 l -2.978 -2.618 l 8.707 -4.74 l 3.341 2.345 l 3.21 -2.345 l 8.742 4.639 l -3.014 2.68 l 0.014 0.008 l 3 4.115 l -3 1.634 v 4.122 l -9 4.802 l -9 -4.802 v -4.115 l 1 0.544 v 2.971 l 7.501 4.002 v -7.889 l -2.501 3.634 l -9 -4.893 l 2.978 -4.094 z m 9.523 5.366 v 7.875 l 7.499 -4.001 v -2.977 l -5 2.724 l -2.499 -3.621 z m -11.022 -1.606 l 7.208 3.918 l 1.847 -2.684 l -7.231 -3.742 l -1.824 2.508 z m 11.989 1.247 l 1.844 2.671 l 7.208 -3.927 l -1.822 -2.498 l -7.23 3.754 z m -9.477 -4.525 l 8.01 -4.43 l 7.999 4.437 l -7.971 4.153 l -8.038 -4.16 z m -2.256 -2.906 l 2.106 1.851 l 7.16 -3.953 l -2.361 -1.657 l -6.905 3.759 z m 11.273 -2.052 l 7.076 3.901 l 2.176 -1.935 l -6.918 -3.671 l -2.334 1.705 z" stroke-linecap="round" />
</g>
    <g transform="matrix(2.27 0 0 2.27 396 348)"  >
<path style="stroke: none; stroke-width: 1; stroke-dasharray: none; stroke-linecap: butt; stroke-dashoffset: 0; stroke-linejoin: miter; stroke-miterlimit: 4; fill: rgb(0,0,0); fill-opacity: 0.03; fill-rule: evenodd; opacity: 1;"  transform=" translate(-12, -12)" d="M 23 6.066 v 12.065 l -11.001 5.869 l -11 -5.869 v -12.131 l 11 -6 l 11.001 6.066 z m -21.001 11.465 l 9.5 5.069 v -10.57 l -9.5 -4.946 v 10.447 z m 20.001 -10.388 l -9.501 4.889 v 10.568 l 9.501 -5.069 v -10.388 z m -5.52 1.716 l -9.534 -4.964 l -4.349 2.373 l 9.404 4.896 l 4.479 -2.305 z m -8.476 -5.541 l 9.565 4.98 l 3.832 -1.972 l -9.405 -5.185 l -3.992 2.177 z" stroke-linecap="round" />
</g>
    <g transform="matrix(2.08 0 0 2.08 492 348)"  >
<path style="stroke: none; stroke-width: 1; stroke-dasharray: none; stroke-linecap: butt; stroke-dashoffset: 0; stroke-linejoin: miter; stroke-miterlimit: 4; fill: rgb(0,0,0); fill-opacity: 0.03; fill-rule: evenodd; opacity: 1;"  transform=" translate(-12, -12)" d="M 2.978 8.358 l -2.978 -2.618 l 8.707 -4.74 l 3.341 2.345 l 3.21 -2.345 l 8.742 4.639 l -3.014 2.68 l 0.014 0.008 l 3 4.115 l -3 1.634 v 4.122 l -9 4.802 l -9 -4.802 v -4.115 l 1 0.544 v 2.971 l 7.501 4.002 v -7.889 l -2.501 3.634 l -9 -4.893 l 2.978 -4.094 z m 9.523 5.366 v 7.875 l 7.499 -4.001 v -2.977 l -5 2.724 l -2.499 -3.621 z m -11.022 -1.606 l 7.208 3.918 l 1.847 -2.684 l -7.231 -3.742 l -1.824 2.508 z m 11.989 1.247 l 1.844 2.671 l 7.208 -3.927 l -1.822 -2.498 l -7.23 3.754 z m -9.477 -4.525 l 8.01 -4.43 l 7.999 4.437 l -7.971 4.153 l -8.038 -4.16 z m -2.256 -2.906 l 2.106 1.851 l 7.16 -3.953 l -2.361 -1.657 l -6.905 3.759 z m 11.273 -2.052 l 7.076 3.901 l 2.176 -1.935 l -6.918 -3.671 l -2.334 1.705 z" stroke-linecap="round" />
</g>
    <g transform="matrix(2.27 0 0 2.27 60 444)"  >
<path style="stroke: none; stroke-width: 1; stroke-dasharray: none; stroke-linecap: butt; stroke-dashoffset: 0; stroke-linejoin: miter; stroke-miterlimit: 4; fill: rgb(0,0,0); fill-opacity: 0.03; fill-rule: evenodd; opacity: 1;"  transform=" translate(-12, -12)" d="M 23 6.066 v 12.065 l -11.001 5.869 l -11 -5.869 v -12.131 l 11 -6 l 11.001 6.066 z m -21.001 11.465 l 9.5 5.069 v -10.57 l -9.5 -4.946 v 10.447 z m 20.001 -10.388 l -9.501 4.889 v 10.568 l 9.501 -5.069 v -10.388 z m -5.52 1.716 l -9.534 -4.964 l -4.349 2.373 l 9.404 4.896 l 4.479 -2.305 z m -8.476 -5.541 l 9.565 4.98 l 3.832 -1.972 l -9.405 -5.185 l -3.992 2.177 z" stroke-linecap="round" />
</g>
    <g transform="matrix(2.08 0 0 2.08 156 444)"  >
<path style="stroke: none; stroke-width: 1; stroke-dasharray: none; stroke-linecap: butt; stroke-dashoffset: 0; stroke-linejoin: miter; stroke-miterlimit: 4; fill: rgb(0,0,0); fill-opacity: 0.03; fill-rule: evenodd; opacity: 1;"  transform=" translate(-12, -12)" d="M 2.978 8.358 l -2.978 -2.618 l 8.707 -4.74 l 3.341 2.345 l 3.21 -2.345 l 8.742 4.639 l -3.014 2.68 l 0.014 0.008 l 3 4.115 l -3 1.634 v 4.122 l -9 4.802 l -9 -4.802 v -4.115 l 1 0.544 v 2.971 l 7.501 4.002 v -7.889 l -2.501 3.634 l -9 -4.893 l 2.978 -4.094 z m 9.523 5.366 v 7.875 l 7.499 -4.001 v -2.977 l -5 2.724 l -2.499 -3.621 z m -11.022 -1.606 l 7.208 3.918 l 1.847 -2.684 l -7.231 -3.742 l -1.824 2.508 z m 11.989 1.247 l 1.844 2.671 l 7.208 -3.927 l -1.822 -2.498 l -7.23 3.754 z m -9.477 -4.525 l 8.01 -4.43 l 7.999 4.437 l -7.971 4.153 l -8.038 -4.16 z m -2.256 -2.906 l 2.106 1.851 l 7.16 -3.953 l -2.361 -1.657 l -6.905 3.759 z m 11.273 -2.052 l 7.076 3.901 l 2.176 -1.935 l -6.918 -3.671 l -2.334 1.705 z" stroke-linecap="round" />
</g>
    <g transform="matrix(2.27 0 0 2.27 252 444)"  >
<path style="stroke: none; stroke-width: 1; stroke-dasharray: none; stroke-linecap: butt; stroke-dashoffset: 0; stroke-linejoin: miter; stroke-miterlimit: 4; fill: rgb(0,0,0); fill-opacity: 0.03; fill-rule: evenodd; opacity: 1;"  transform=" translate(-12, -12)" d="M 23 6.066 v 12.065 l -11.001 5.869 l -11 -5.869 v -12.131 l 11 -6 l 11.001 6.066 z m -21.001 11.465 l 9.5 5.069 v -10.57 l -9.5 -4.946 v 10.447 z m 20.001 -10.388 l -9.501 4.889 v 10.568 l 9.501 -5.069 v -10.388 z m -5.52 1.716 l -9.534 -4.964 l -4.349 2.373 l 9.404 4.896 l 4.479 -2.305 z m -8.476 -5.541 l 9.565 4.98 l 3.832 -1.972 l -9.405 -5.185 l -3.992 2.177 z" stroke-linecap="round" />
</g>
    <g transform="matrix(2.08 0 0 2.08 348 444)"  >
<path style="stroke: none; stroke-width: 1; stroke-dasharray: none; stroke-linecap: butt; stroke-dashoffset: 0; stroke-linejoin: miter; stroke-miterlimit: 4; fill: rgb(0,0,0); fill-opacity: 0.03; fill-rule: evenodd; opacity: 1;"  transform=" translate(-12, -12)" d="M 2.978 8.358 l -2.978 -2.618 l 8.707 -4.74 l 3.341 2.345 l 3.21 -2.345 l 8.742 4.639 l -3.014 2.68 l 0.014 0.008 l 3 4.115 l -3 1.634 v 4.122 l -9 4.802 l -9 -4.802 v -4.115 l 1 0.544 v 2.971 l 7.501 4.002 v -7.889 l -2.501 3.634 l -9 -4.893 l 2.978 -4.094 z m 9.523 5.366 v 7.875 l 7.499 -4.001 v -2.977 l -5 2.724 l -2.499 -3.621 z m -11.022 -1.606 l 7.208 3.918 l 1.847 -2.684 l -7.231 -3.742 l -1.824 2.508 z m 11.989 1.247 l 1.844 2.671 l 7.208 -3.927 l -1.822 -2.498 l -7.23 3.754 z m -9.477 -4.525 l 8.01 -4.43 l 7.999 4.437 l -7.971 4.153 l -8.038 -4.16 z m -2.256 -2.906 l 2.106 1.851 l 7.16 -3.953 l -2.361 -1.657 l -6.905 3.759 z m 11.273 -2.052 l 7.076 3.901 l 2.176 -1.935 l -6.918 -3.671 l -2.334 1.705 z" stroke-linecap="round" />
</g>
    <g transform="matrix(2.27 0 0 2.27 444 444)"  >
<path style="stroke: none; stroke-width: 1; stroke-dasharray: none; stroke-linecap: butt; stroke-dashoffset: 0; stroke-linejoin: miter; stroke-miterlimit: 4; fill: rgb(0,0,0); fill-opacity: 0.03; fill-rule: evenodd; opacity: 1;"  transform=" translate(-12, -12)" d="M 23 6.066 v 12.065 l -11.001 5.869 l -11 -5.869 v -12.131 l 11 -6 l 11.001 6.066 z m -21.001 11.465 l 9.5 5.069 v -10.57 l -9.5 -4.946 v 10.447 z m 20.001 -10.388 l -9.501 4.889 v 10.568 l 9.501 -5.069 v -10.388 z m -5.52 1.716 l -9.534 -4.964 l -4.349 2.373 l 9.404 4.896 l 4.479 -2.305 z m -8.476 -5.541 l 9.565 4.98 l 3.832 -1.972 l -9.405 -5.185 l -3.992 2.177 z" stroke-linecap="round" />
</g>
    <g transform="matrix(2.08 0 0 2.08 540 444)"  >
<path style="stroke: none; stroke-width: 1; stroke-dasharray: none; stroke-linecap: butt; stroke-dashoffset: 0; stroke-linejoin: miter; stroke-miterlimit: 4; fill: rgb(0,0,0); fill-opacity: 0.03; fill-rule: evenodd; opacity: 1;"  transform=" translate(-12, -12)" d="M 2.978 8.358 l -2.978 -2.618 l 8.707 -4.74 l 3.341 2.345 l 3.21 -2.345 l 8.742 4.639 l -3.014 2.68 l 0.014 0.008 l 3 4.115 l -3 1.634 v 4.122 l -9 4.802 l -9 -4.802 v -4.115 l 1 0.544 v 2.971 l 7.501 4.002 v -7.889 l -2.501 3.634 l -9 -4.893 l 2.978 -4.094 z m 9.523 5.366 v 7.875 l 7.499 -4.001 v -2.977 l -5 2.724 l -2.499 -3.621 z m -11.022 -1.606 l 7.208 3.918 l 1.847 -2.684 l -7.231 -3.742 l -1.824 2.508 z m 11.989 1.247 l 1.844 2.671 l 7.208 -3.927 l -1.822 -2.498 l -7.23 3.754 z m -9.477 -4.525 l 8.01 -4.43 l 7.999 4.437 l -7.971 4.153 l -8.038 -4.16 z m -2.256 -2.906 l 2.106 1.851 l 7.16 -3.953 l -2.361 -1.657 l -6.905 3.759 z m 11.273 -2.052 l 7.076 3.901 l 2.176 -1.935 l -6.918 -3.671 l -2.334 1.705 z" stroke-linecap="round" />
</g>
    <g transform="matrix(2.27 0 0 2.27 108 540)"  >
<path style="stroke: none; stroke-width: 1; stroke-dasharray: none; stroke-linecap: butt; stroke-dashoffset: 0; stroke-linejoin: miter; stroke-miterlimit: 4; fill: rgb(0,0,0); fill-opacity: 0.03; fill-rule: evenodd; opacity: 1;"  transform=" translate(-12, -12)" d="M 23 6.066 v 12.065 l -11.001 5.869 l -11 -5.869 v -12.131 l 11 -6 l 11.001 6.066 z m -21.001 11.465 l 9.5 5.069 v -10.57 l -9.5 -4.946 v 10.447 z m 20.001 -10.388 l -9.501 4.889 v 10.568 l 9.501 -5.069 v -10.388 z m -5.52 1.716 l -9.534 -4.964 l -4.349 2.373 l 9.404 4.896 l 4.479 -2.305 z m -8.476 -5.541 l 9.565 4.98 l 3.832 -1.972 l -9.405 -5.185 l -3.992 2.177 z" stroke-linecap="round" />
</g>
    <g transform="matrix(2.08 0 0 2.08 204 540)"  >
<path style="stroke: none; stroke-width: 1; stroke-dasharray: none; stroke-linecap: butt; stroke-dashoffset: 0; stroke-linejoin: miter; stroke-miterlimit: 4; fill: rgb(0,0,0); fill-opacity: 0.03; fill-rule: evenodd; opacity: 1;"  transform=" translate(-12, -12)" d="M 2.978 8.358 l -2.978 -2.618 l 8.707 -4.74 l 3.341 2.345 l 3.21 -2.345 l 8.742 4.639 l -3.014 2.68 l 0.014 0.008 l 3 4.115 l -3 1.634 v 4.122 l -9 4.802 l -9 -4.802 v -4.115 l 1 0.544 v 2.971 l 7.501 4.002 v -7.889 l -2.501 3.634 l -9 -4.893 l 2.978 -4.094 z m 9.523 5.366 v 7.875 l 7.499 -4.001 v -2.977 l -5 2.724 l -2.499 -3.621 z m -11.022 -1.606 l 7.208 3.918 l 1.847 -2.684 l -7.231 -3.742 l -1.824 2.508 z m 11.989 1.247 l 1.844 2.671 l 7.208 -3.927 l -1.822 -2.498 l -7.23 3.754 z m -9.477 -4.525 l 8.01 -4.43 l 7.999 4.437 l -7.971 4.153 l -8.038 -4.16 z m -2.256 -2.906 l 2.106 1.851 l 7.16 -3.953 l -2.361 -1.657 l -6.905 3.759 z m 11.273 -2.052 l 7.076 3.901 l 2.176 -1.935 l -6.918 -3.671 l -2.334 1.705 z" stroke-linecap="round" />
</g>
    <g transform="matrix(2.27 0 0 2.27 300 540)"  >
<path style="stroke: none; stroke-width: 1; stroke-dasharray: none; stroke-linecap: butt; stroke-dashoffset: 0; stroke-linejoin: miter; stroke-miterlimit: 4; fill: rgb(0,0,0); fill-opacity: 0.03; fill-rule: evenodd; opacity: 1;"  transform=" translate(-12, -12)" d="M 23 6.066 v 12.065 l -11.001 5.869 l -11 -5.869 v -12.131 l 11 -6 l 11.001 6.066 z m -21.001 11.465 l 9.5 5.069 v -10.57 l -9.5 -4.946 v 10.447 z m 20.001 -10.388 l -9.501 4.889 v 10.568 l 9.501 -5.069 v -10.388 z m -5.52 1.716 l -9.534 -4.964 l -4.349 2.373 l 9.404 4.896 l 4.479 -2.305 z m -8.476 -5.541 l 9.565 4.98 l 3.832 -1.972 l -9.405 -5.185 l -3.992 2.177 z" stroke-linecap="round" />
</g>
    <g transform="matrix(2.08 0 0 2.08 396 540)"  >
<path style="stroke: none; stroke-width: 1; stroke-dasharray: none; stroke-linecap: butt; stroke-dashoffset: 0; stroke-linejoin: miter; stroke-miterlimit: 4; fill: rgb(0,0,0); fill-opacity: 0.03; fill-rule: evenodd; opacity: 1;"  transform=" translate(-12, -12)" d="M 2.978 8.358 l -2.978 -2.618 l 8.707 -4.74 l 3.341 2.345 l 3.21 -2.345 l 8.742 4.639 l -3.014 2.68 l 0.014 0.008 l 3 4.115 l -3 1.634 v 4.122 l -9 4.802 l -9 -4.802 v -4.115 l 1 0.544 v 2.971 l 7.501 4.002 v -7.889 l -2.501 3.634 l -9 -4.893 l 2.978 -4.094 z m 9.523 5.366 v 7.875 l 7.499 -4.001 v -2.977 l -5 2.724 l -2.499 -3.621 z m -11.022 -1.606 l 7.208 3.918 l 1.847 -2.684 l -7.231 -3.742 l -1.824 2.508 z m 11.989 1.247 l 1.844 2.671 l 7.208 -3.927 l -1.822 -2.498 l -7.23 3.754 z m -9.477 -4.525 l 8.01 -4.43 l 7.999 4.437 l -7.971 4.153 l -8.038 -4.16 z m -2.256 -2.906 l 2.106 1.851 l 7.16 -3.953 l -2.361 -1.657 l -6.905 3.759 z m 11.273 -2.052 l 7.076 3.901 l 2.176 -1.935 l -6.918 -3.671 l -2.334 1.705 z" stroke-linecap="round" />
</g>
    <g transform="matrix(2.27 0 0 2.27 492 540)"  >
<path style="stroke: none; stroke-width: 1; stroke-dasharray: none; stroke-linecap: butt; stroke-dashoffset: 0; stroke-linejoin: miter; stroke-miterlimit: 4; fill: rgb(0,0,0); fill-opacity: 0.03; fill-rule: evenodd; opacity: 1;"  transform=" translate(-12, -12)" d="M 23 6.066 v 12.065 l -11.001 5.869 l -11 -5.869 v -12.131 l 11 -6 l 11.001 6.066 z m -21.001 11.465 l 9.5 5.069 v -10.57 l -9.5 -4.946 v 10.447 z m 20.001 -10.388 l -9.501 4.889 v 10.568 l 9.501 -5.069 v -10.388 z m -5.52 1.716 l -9.534 -4.964 l -4.349 2.373 l 9.404 4.896 l 4.479 -2.305 z m -8.476 -5.541 l 9.565 4.98 l 3.832 -1.972 l -9.405 -5.185 l -3.992 2.177 z" stroke-linecap="round" />
</g>
</svg>