<svg xmlns="http://www.w3.org/2000/svg" viewBox="0 0 400 72.31" width="400px" height="72px"><defs><style>.cls-1{fill:#fff;}</style></defs><title>battlefield-1-svg-logo</title><g id="Layer_2" data-name="Layer 2"><g id="Layer_1-2" data-name="Layer 1"><path d="M378.19,72.31V19.1h-7.48V7.68l2-.22c5-.57,6.14-3.06,6.61-5.66L379.6,0h12V72.31Z"/><path class="cls-1" d="M381.44,2.2c-.75,4.1-3,6.82-8.53,7.44V16.9h7.48V70.11h9V2.2Z"/><path d="M0,72.31V0H17.62c9.7,0,13.84,3.85,13.84,12.87V27.42c0,3.51-.89,6.21-2.71,8.16,2.08,2,3.1,4.8,3.1,8.53V58.57c0,6.4-1.55,13.74-13.65,13.74ZM17.52,59.37a1,1,0,0,0,.91-1V43.53c0-1.39-.17-1.39-1.1-1.39H13.42V59.37Zm-.29-30c.91,0,1-.6,1-2.64V15.1c0-1.42,0-2.16-.9-2.16H13.42V29.39Z"/><path class="cls-1" d="M25,35.67c3-1.55,4.27-4.17,4.27-8.25V12.87c0-7-2.23-10.67-11.64-10.67H2.2V70.11h16c9.31,0,11.45-4.56,11.45-11.54V44.11C29.65,39.94,28.29,37.22,25,35.67ZM11.22,10.74h6.11c2.72,0,3.1,1.45,3.1,4.36V26.75c0,3-.38,4.85-3.2,4.85h-6Zm9.41,47.63c0,2.14-.78,3.2-3.11,3.2h-6.3V39.94h6.11c2.52,0,3.3,1.36,3.3,3.59Z"/><polygon points="111.32 72.31 111.32 12.94 102.54 12.94 102.54 0 133.53 0 133.53 12.94 124.75 12.94 124.75 72.31 111.32 72.31"/><polygon class="cls-1" points="104.74 10.74 113.52 10.74 113.52 70.11 122.54 70.11 122.54 10.74 131.33 10.74 131.33 2.2 104.74 2.2 104.74 10.74"/><polygon points="78.53 72.31 78.53 12.94 69.74 12.94 69.74 0 100.73 0 100.73 12.94 91.95 12.94 91.95 72.31 78.53 72.31"/><polygon class="cls-1" points="71.94 10.74 80.73 10.74 80.73 70.11 89.75 70.11 89.75 10.74 98.53 10.74 98.53 2.2 71.94 2.2 71.94 10.74"/><polygon points="136.06 72.31 136.06 0 149.48 0 149.48 59.37 162.79 59.37 162.79 72.31 136.06 72.31"/><polygon class="cls-1" points="160.59 61.57 147.28 61.57 147.28 2.2 138.26 2.2 138.26 70.11 160.59 70.11 160.59 61.57"/><polygon points="286.97 72.31 286.97 0 300.4 0 300.4 59.37 313.71 59.37 313.71 72.31 286.97 72.31"/><polygon class="cls-1" points="298.19 2.2 289.17 2.2 289.17 70.11 311.5 70.11 311.5 61.57 298.19 61.57 298.19 2.2"/><polygon points="165.32 72.31 165.32 0 192.06 0 192.06 12.94 178.75 12.94 178.75 29.39 192.06 29.39 192.06 42.14 178.75 42.14 178.75 59.37 192.06 59.37 192.06 72.31 165.32 72.31"/><polygon class="cls-1" points="167.52 70.11 189.85 70.11 189.85 61.57 176.54 61.57 176.54 39.94 189.85 39.94 189.85 31.6 176.54 31.6 176.54 10.74 189.85 10.74 189.85 2.2 167.52 2.2 167.52 70.11"/><polygon points="253.28 72.31 253.28 0 280.01 0 280.01 12.94 266.7 12.94 266.7 29.39 280.01 29.39 280.01 42.14 266.7 42.14 266.7 59.37 280.01 59.37 280.01 72.31 253.28 72.31"/><polygon class="cls-1" points="255.48 70.11 277.81 70.11 277.81 61.57 264.5 61.57 264.5 39.94 277.81 39.94 277.81 31.6 264.5 31.6 264.5 10.74 277.81 10.74 277.81 2.2 255.48 2.2 255.48 70.11"/><polygon points="199.01 72.31 199.01 0 225.75 0 225.75 12.94 212.44 12.94 212.44 29.39 225.75 29.39 225.75 42.14 212.44 42.14 212.44 72.31 199.01 72.31"/><polygon class="cls-1" points="201.22 70.11 210.24 70.11 210.24 39.94 223.55 39.94 223.55 31.6 210.24 31.6 210.24 10.74 223.55 10.74 223.55 2.2 201.22 2.2 201.22 70.11"/><rect x="231.42" width="13.42" height="72.31"/><rect class="cls-1" x="233.62" y="2.2" width="9.02" height="67.91"/><path d="M316.23,72.31V0h17.62c12.76,0,14.24,8.07,14.24,14.13V58.18c0,4.78-.9,7.94-2.9,10.24-2.27,2.62-5.91,3.89-11.14,3.89Zm17.43-12.94c.64,0,1-.37,1-1.1V14.1c0-.81-.39-1.2-1.1-1.2h-3.9V59.37Z"/><path class="cls-1" d="M333.85,2.2H318.44V70.11h15.61c9.51,0,11.83-4.36,11.83-11.93v-44C345.88,6.76,343.46,2.2,333.85,2.2Zm3,56.07c0,2.14-.77,3.3-3.2,3.3h-6.2V10.7h6.1c2.43,0,3.3,1.07,3.3,3.4Z"/><path d="M58.88,72.31l-2.39-17H49.44l-2.38,17H33.43L45.38,0H60.56L72.5,72.31ZM54.7,42.57,53,30.21,51.23,42.57Z"/><path class="cls-1" d="M47.24,2.2,36,70.11h9.12l2.39-17H58.4l2.39,17h9.12L58.69,2.2ZM48.7,44.77,53,14.37l4.26,30.4Z"/><polygon points="398.48 0 398.24 0.92 398 0 393.84 0 393.84 1.21 394.7 1.21 394.7 3.6 396 3.6 396 1.21 396.49 1.21 396.49 3.6 400 3.6 400 0 398.48 0"/><polygon class="cls-1" points="394.2 0.85 395.06 0.85 395.06 3.24 395.64 3.24 395.64 0.85 396.49 0.85 396.49 0.36 394.2 0.36 394.2 0.85"/><polygon class="cls-1" points="398.76 0.36 398.25 2.33 397.72 0.36 396.85 0.36 396.85 3.24 397.39 3.24 397.39 0.97 397.96 3.24 398.52 3.24 399.09 0.97 399.09 3.24 399.64 3.24 399.64 0.36 398.76 0.36"/></g></g></svg>