<?xml version="1.0" encoding="UTF-8"?>
<svg width="400px" height="122px" viewBox="0 0 400 122" version="1.1" xmlns="http://www.w3.org/2000/svg" xmlns:xlink="http://www.w3.org/1999/xlink">
    <!-- Generator: Sketch 49.2 (51160) - http://www.bohemiancoding.com/sketch -->
    <title>v</title>
    <desc>Created with Sketch.</desc>
    <defs>
        <polygon id="path-1" points="0.9267 0.6344 28.7677 0.6344 28.7677 75 0.9267 75"></polygon>
        <polygon id="path-3" points="0 75 400 75 400 0.594 0 0.594"></polygon>
    </defs>
    <g id="v" stroke="none" stroke-width="1" fill="none" fill-rule="evenodd">
        <g id="Group-4">
            <rect id="Rectangle-3" x="0" y="0" width="400" height="122"></rect>
            <g id="test2" transform="translate(0.000000, 22.000000)">
                <path d="M14.146,63.1381 L14.146,42.4251 L19.836,42.4251 L20.064,62.9101 L14.146,63.1381 Z M14.715,13.5181 L19.495,13.5181 L19.495,29.4511 L18.698,31.6241 L14.374,31.6241 L13.805,14.2011 L14.715,13.5181 Z M32.355,32.8661 L32.014,8.6251 L27.12,2.4791 L1.172,3.0481 L1.627,73.7221 L25.754,73.7221 L31.9,70.0801 L32.355,40.1491 L30.307,36.9631 L32.355,32.8661 Z" id="Fill-1" fill="#FFFFFF"></path>
                <path d="M57.0513,45.1566 L52.7263,45.1566 L55.1573,26.9476 L57.8483,44.8156 L57.0513,45.1566 Z M62.4003,2.9346 L48.0603,2.2516 L34.9723,73.9496 L48.0603,73.7216 L51.4743,55.7406 L59.7823,55.5126 L63.3103,74.1776 L75.7163,73.7216 L62.4003,2.9346 Z" id="Fill-2" fill="#FFFFFF"></path>
                <polygon id="Fill-3" fill="#FFFFFF" points="70.3667 2.9345 70.5947 13.5185 79.2437 13.7465 79.5847 73.7225 92.2177 73.3805 91.5347 12.9495 99.8427 13.2905 99.8427 1.9105"></polygon>
                <polygon id="Fill-4" fill="#FFFFFF" points="103.4844 2.7069 132.8464 2.7069 132.8464 13.0629 124.3114 13.2909 123.6284 73.4949 112.1334 73.7219 113.0444 13.7459 103.4844 13.0629"></polygon>
                <polygon id="Fill-5" fill="#FFFFFF" points="136.147 1.91 136.603 73.722 160.957 74.178 161.526 62.455 148.836 63.024 148.836 2.593"></polygon>
                <polygon id="Fill-6" fill="#FFFFFF" points="165.2817 2.7069 165.2817 73.4949 190.5467 73.7219 190.5467 62.7969 177.9137 63.7069 178.1417 42.0839 190.8877 42.1979 190.6607 31.8409 177.8007 31.8409 178.0847 13.7459 190.3197 13.1769 190.4327 3.1619"></polygon>
                <g id="Group-48" transform="translate(0.000000, 0.406200)">
                    <path d="M198.6269,2.5283 L199.1959,73.3163 L211.8289,73.3163 L211.1459,42.1333 L224.4609,41.5643 L223.8919,30.9803 C223.8919,30.9803 210.8039,30.9803 210.8039,31.3213 C210.8039,31.6633 211.0319,13.3403 211.0319,13.3403 L223.6649,12.9983 L223.8919,2.0733 L198.6269,2.5283 Z" id="Fill-7" fill="#FFFFFF"></path>
                    <polygon id="Fill-9" fill="#FFFFFF" points="232.769 2.642 246.084 2.301 244.946 73.771 232.428 73.316 232.769 2.983"></polygon>
                    <polygon id="Fill-11" fill="#FFFFFF" points="254.9614 2.642 279.3154 2.642 279.7714 12.998 267.1804 12.998 267.0244 31.207 279.5434 30.98 279.0884 41.791 267.5934 42.247 267.7074 62.618 280.2264 63.074 280.2264 73.885 254.9614 73.316"></polygon>
                    <polygon id="Fill-13" fill="#FFFFFF" points="288.1928 2.8696 287.9648 73.5436 312.6618 73.3156 312.3198 62.3906 299.8008 62.2766 300.0288 2.3006"></polygon>
                    <path d="M328.5942,62.5043 L328.9352,13.3393 L334.9682,12.8843 L335.5362,62.5043 L328.5942,62.5043 Z M347.3722,10.7223 L341.2272,3.2113 L331.2122,2.4903 L316.6442,2.0733 L316.6442,73.5443 L334.2842,73.5443 L340.7712,72.0643 L348.0552,65.4633 L347.3722,10.7223 Z" id="Fill-15" fill="#FFFFFF"></path>
                    <polygon id="Fill-17" fill="#FFFFFF" points="377.8725 2.3007 361.3705 49.7587 383.7905 50.2137 384.3595 73.0887 395.6985 73.4297 395.5125 49.9857 398.4715 49.7587 398.8125 39.5157 395.9675 39.5157 395.1715 26.1997 384.4735 25.9727 384.5805 39.0597 377.7585 39.0607 389.8225 2.8697 386.0665 2.4907"></polygon>
                    <polygon id="Fill-19" fill="#FFFFFF" points="393.3506 0.8779 395.5596 0.8779 396.4706 0.9069 396.8696 1.9399 397.3056 0.8399 398.1396 0.8969 398.1496 4.1119 397.2676 4.1599 397.3146 3.1449 396.8876 3.8839 396.4706 3.2769 396.4326 4.1119 395.6366 4.1219 395.6176 1.6559 394.8396 1.7319 394.8106 4.1599 393.9856 4.1219 394.0426 1.7029 393.3506 1.6749"></polygon>
                    <path d="M61.1714,53.6855 C62.1194,59.6565 63.3034,65.6345 64.2054,71.6515 L73.3554,71.6515 C69.3924,48.9615 65.0694,26.5705 61.0064,3.9805 L49.4674,3.9805 C45.3164,26.4815 41.1564,48.9605 37.1954,71.6515 L46.3194,71.6515 C47.3224,65.6445 48.3654,59.5455 49.5154,53.6855 L61.1714,53.6855 Z M46.8344,0.6345 L63.4954,0.6345 C67.9394,25.4385 72.8594,50.2805 77.1614,74.9995 L61.5494,74.9995 C60.5434,68.8815 59.4784,62.8485 58.3394,56.8625 L52.3184,56.8625 C51.1704,62.8595 50.1674,68.9795 49.0414,74.9995 L33.2464,74.9995 C37.7694,50.2055 42.3104,25.4275 46.8344,0.6345 Z" id="Fill-21" fill="#000000"></path>
                    <path d="M72.3691,11.31 L80.7781,11.31 L80.7781,71.652 L89.9281,71.652 L89.9281,11.31 L98.6331,11.31 L98.6331,3.98 L72.3691,3.98 L72.3691,11.31 Z M69.1701,0.634 L101.4001,0.634 L101.4001,14.465 L93.2741,14.465 L93.2741,75 L77.6331,75 L77.6401,14.465 L69.1701,14.465 L69.1701,0.634 Z" id="Fill-23" fill="#000000"></path>
                    <path d="M104.9536,11.31 L113.2356,11.31 L113.2356,71.652 L122.4946,71.652 L122.4946,11.31 L131.1006,11.31 L131.0936,3.98 L104.9486,3.98 L104.9536,11.31 Z M102.1606,0.634 L134.3296,0.634 L134.3296,14.465 L125.7946,14.465 L125.7806,75 L110.0946,75 L110.0976,14.465 L102.1606,14.465 L102.1606,0.634 Z" id="Fill-25" fill="#000000"></path>
                    <g id="Group-29" transform="translate(134.000000, 0.000000)">
                        <mask id="mask-2" fill="white">
                            <use xlink:href="#path-1"></use>
                        </mask>
                        <g id="Clip-28"></g>
                        <path d="M4.1997,3.9804 L4.2157,71.6514 L25.9937,71.6514 L25.9937,64.2034 L13.3237,64.2034 L13.3237,3.9804 L4.1997,3.9804 Z M16.5747,0.6344 C16.5747,20.8004 16.5757,41.0484 16.5757,61.2154 L28.7677,61.2254 L28.7677,75.0004 L0.9347,75.0004 L0.9267,0.6344 L16.5747,0.6344 Z" id="Fill-27" fill="#000000" mask="url(#mask-2)"></path>
                    </g>
                    <path d="M166.9892,71.6518 L189.0052,71.6518 L189.0052,64.2428 L176.3052,64.2598 L176.3052,40.1138 L189.0452,40.1328 L189.0452,32.6268 L176.3052,32.6218 L176.3052,11.3098 L189.0142,11.3098 L189.0452,3.9808 L166.9892,3.9808 L166.9892,71.6518 Z M163.9162,0.6338 L192.0682,0.6338 L192.0682,14.4508 L179.4732,14.4508 L179.4852,29.5588 L192.0682,29.5568 L192.0682,43.2428 L179.5532,43.2428 L179.5492,61.2248 L192.0682,61.2388 L192.0682,74.9998 L163.9162,74.9998 L163.9162,0.6338 Z" id="Fill-30" fill="#000000"></path>
                    <path d="M256.1904,71.6518 L278.2054,71.6518 L278.2054,64.2428 L265.5064,64.2598 L265.5064,40.1138 L278.2054,40.1328 L278.2054,32.6268 L265.5064,32.6218 L265.5064,11.3098 L278.2054,11.3098 L278.2054,3.9808 L256.1554,3.9808 L256.1904,71.6518 Z M253.0454,0.6338 L281.2694,0.6338 L281.2694,14.4508 L268.6744,14.4508 L268.6864,29.5588 L281.2694,29.5568 L281.2694,43.2428 L268.7534,43.2428 L268.7504,61.2248 L281.2694,61.2388 L281.2694,74.9998 L253.0454,74.9998 L253.0454,0.6338 Z" id="Fill-32" fill="#000000"></path>
                    <path d="M311.2998,64.2426 L298.6768,64.2596 L298.6768,3.9806 L289.6218,3.9806 L289.6558,71.6516 L311.2998,71.6516 L311.2998,64.2426 Z M301.9398,61.0846 L314.5808,61.0846 L314.5808,74.9996 L286.2998,74.9996 L286.2998,0.6346 L301.9398,0.6346 L301.9398,61.0846 Z" id="Fill-34" fill="#000000"></path>
                    <path d="M209.7368,71.6518 L209.7368,40.1138 L222.4758,40.1328 L222.4758,32.6268 L209.7368,32.6218 L209.7368,11.3098 L222.4448,11.3098 L222.4448,3.9808 L200.6228,3.9808 L200.6228,71.6518 L209.7368,71.6518 Z M197.2748,74.9998 L197.2748,0.6338 L225.4988,0.6338 L225.4988,14.4508 L212.9038,14.4508 L212.9038,29.5588 L225.4988,29.5568 L225.4988,43.2428 L212.9038,43.2428 L212.9038,74.9998 L197.2748,74.9998 Z" id="Fill-36" fill="#000000"></path>
                    <mask id="mask-4" fill="white">
                        <use xlink:href="#path-3"></use>
                    </mask>
                    <g id="Clip-39"></g>
                    <path d="M234.622,71.651 L243.727,71.651 L243.727,3.98 L234.622,3.98 L234.622,71.651 Z M231.274,75 L246.899,75 L246.899,0.634 L231.274,0.634 L231.274,75 Z" id="Fill-38" fill="#000000" mask="url(#mask-4)"></path>
                    <path d="M346.1889,62.2495 L346.1889,15.0765 C346.1889,9.1015 341.8569,3.9805 334.0609,3.9805 L318.5349,3.9805 L318.5349,71.6515 L334.5729,71.6515 C339.6749,71.6515 346.1889,67.8415 346.1889,62.2495 M334.9149,74.9995 L315.1889,74.9995 L315.1889,0.6345 C315.1829,0.5375 315.1769,0.6455 315.2569,0.6345 L335.2559,0.6345 C342.0269,0.6345 349.4759,6.0285 349.4759,14.2295 L349.4759,62.4715 C349.4759,72.9995 337.5889,74.9995 334.9149,74.9995" id="Fill-40" fill="#000000" mask="url(#mask-4)"></path>
                    <path d="M379.6367,37.6962 L382.8457,37.6962 L382.8457,28.4042 L379.6367,37.6962 Z M363.9847,48.2252 L385.7897,48.2252 L385.7897,71.6522 L393.8287,71.6522 L393.8287,48.2252 L396.9397,48.2252 L396.9397,40.7112 L393.8287,40.7112 L393.8287,27.0902 L385.7897,27.0902 L385.7897,40.7112 L375.3447,40.7112 C379.4887,28.2332 383.8817,16.4572 388.0277,3.9802 L379.0977,3.9802 L363.9847,48.2252 Z M377.1627,0.6342 L392.3017,0.6342 C389.6217,8.4982 384.3347,24.0102 384.3347,24.0102 L396.9677,24.0102 L396.9677,37.6672 L399.9997,37.6672 L399.9997,51.2952 L396.9677,51.2952 L396.9677,74.9952 L382.7627,74.9952 L382.7627,51.2952 L359.5797,51.2952 L377.1627,0.6342 Z" id="Fill-41" fill="#000000" mask="url(#mask-4)"></path>
                    <path d="M395.7671,3.9995 L396.3171,3.9995 L396.3191,2.3585 L396.8591,3.6345 L397.4061,2.3635 L397.4061,4.0505 L397.9521,4.0505 L397.9521,0.9995 L397.4061,0.9995 L396.8631,2.3175 L396.3131,0.9995 L395.7671,0.9995 L395.7671,3.9995 Z M393.4451,1.5545 L394.1281,1.5555 L394.1281,4.0035 L394.6741,4.0035 L394.6741,1.5545 L395.3571,1.5545 L395.3571,0.9995 L393.4451,0.9995 L393.4451,1.5545 Z M393.1721,0.7225 L396.5181,0.7225 L396.8631,1.4855 L397.1631,0.7225 L398.2251,0.7225 L398.2201,4.2585 L397.1481,4.2585 L397.1451,3.7345 L396.8591,4.1155 L396.5911,3.7345 L396.5911,4.2585 L395.4941,4.2585 L395.4941,1.8325 L394.9481,1.8325 L394.9481,4.2585 L393.8551,4.2585 L393.8481,1.8305 L393.1721,1.8325 L393.1721,0.7225 Z" id="Fill-42" fill="#000000" mask="url(#mask-4)"></path>
                    <path d="M15.7148,14.5214 L15.7148,29.6834 L18.4458,29.6834 C18.4458,24.6304 18.4428,19.5744 18.4428,14.5214 L15.7148,14.5214 Z M12.4288,11.2164 L18.5538,11.2164 C19.8108,11.2164 21.5098,11.7144 21.5098,13.5354 L21.5118,30.1764 C21.5118,31.7344 20.1958,32.7554 18.8828,32.7554 L12.4288,32.7474 L12.4288,11.2164 Z" id="Fill-43" fill="#000000" mask="url(#mask-4)"></path>
                    <path d="M15.7148,43.4951 L15.7148,61.1601 L18.4458,61.1601 C18.4458,56.1071 18.4428,48.5481 18.4428,43.4951 L15.7148,43.4951 Z M12.4288,40.1891 L18.5538,40.1891 C19.8108,40.1891 21.5098,40.6871 21.5098,42.5081 L21.5118,61.6531 C21.5118,63.2111 20.1958,64.2341 18.8828,64.2341 L12.4288,64.2231 L12.4288,40.1891 Z" id="Fill-44" fill="#000000" mask="url(#mask-4)"></path>
                    <path d="M54.3721,43.2011 L55.9421,43.2011 C55.6311,41.5321 55.4051,39.4141 55.1231,37.9431 C54.9511,39.7741 54.6431,41.4701 54.3721,43.2011 M55.3281,16.1611 C56.9721,26.0801 58.3711,36.2431 59.9031,46.2741 L50.6851,46.2741 C52.1571,36.1601 53.8251,26.2431 55.3281,16.1611" id="Fill-45" fill="#000000" mask="url(#mask-4)"></path>
                    <path d="M26.6318,36.33 C29.1728,35.676 31.0008,33.976 31.0008,31.863 L31.0008,9.955 C31.0008,7.622 27.6358,3.98 22.8108,3.98 L3.3528,3.98 L3.3458,71.652 L23.3118,71.652 C26.7548,71.652 30.9938,68.452 30.9938,65.379 L30.9938,41.508 C30.9938,41.508 31.0218,37.895 26.6318,36.33 M34.1988,10.524 L34.1988,29.274 C34.1988,31.351 34.4078,34.167 32.2168,36.574 C32.2168,36.574 34.1988,38.578 34.1988,42.295 L34.1988,65.408 C34.1988,72.236 27.0388,75 22.5438,75 L-0.0002,75 L-0.0002,0.634 L21.5118,0.634 C29.9688,0.634 34.1988,5.574 34.1988,10.524" id="Fill-46" fill="#000000" mask="url(#mask-4)"></path>
                    <path d="M330.9121,14.5693 L330.9121,61.2313 L333.6431,61.2313 L333.6431,14.5693 L330.9121,14.5693 Z M327.6261,11.2643 L333.7511,11.2643 C335.0081,11.2643 336.7071,11.7613 336.7071,13.5833 L336.7091,61.7243 C336.7091,63.2823 335.3931,64.3053 334.0801,64.3053 L327.6261,64.3053 L327.6261,11.2643 Z" id="Fill-47" fill="#000000" mask="url(#mask-4)"></path>
                </g>
            </g>
        </g>
    </g>
</svg>