<svg xmlns="http://www.w3.org/2000/svg" viewBox="0 0 156.76 32" width="157px" height="32px"><defs><style>.cls-1{fill:#231f20;}.cls-2{fill:#fff;}</style></defs><title>bf-nav-logo</title><g id="Layer_2" data-name="Layer 2"><g id="Layer_1-2" data-name="Layer 1"><polygon class="cls-1" points="156.09 0 155.99 0.41 155.88 0 154.04 0 154.04 0.54 154.42 0.54 154.42 1.59 155 1.59 155 0.54 155.21 0.54 155.21 1.59 156.76 1.59 156.76 0 156.09 0"/><polygon class="cls-2" points="154.2 0.38 154.58 0.38 154.58 1.44 154.84 1.44 154.84 0.38 155.21 0.38 155.21 0.16 154.2 0.16 154.2 0.38"/><polygon class="cls-2" points="156.22 0.16 155.99 1.03 155.76 0.16 155.37 0.16 155.37 1.44 155.61 1.44 155.61 0.43 155.86 1.44 156.11 1.44 156.36 0.43 156.36 1.44 156.6 1.44 156.6 0.16 156.22 0.16"/><path class="cls-1" d="M139.94,32V0h7.8c5.65,0,6.3,3.57,6.3,6.25V25.74a6.59,6.59,0,0,1-1.28,4.54c-1,1.16-2.62,1.72-4.93,1.72Zm7.72-5.73c.28,0,.44-.16.44-.48V6.24c0-.36-.18-.53-.49-.53h-1.72V26.27Z"/><path class="cls-2" d="M147.74,1h-6.82V31h6.91c4.2,0,5.23-1.94,5.23-5.29V6.25C153.06,3,152,1,147.74,1Zm1.33,24.82c0,.94-.34,1.46-1.41,1.46h-2.75V4.73h2.7c1.08,0,1.46.48,1.46,1.51Z"/><polygon class="cls-1" points="127 32 127 0 132.94 0 132.94 26.27 138.83 26.27 138.83 32 127 32"/><polygon class="cls-2" points="131.96 0.97 127.97 0.97 127.97 31.03 137.85 31.03 137.85 27.25 131.96 27.25 131.96 0.97"/><polygon class="cls-1" points="112.08 32 112.08 0 123.92 0 123.92 5.73 118.03 5.73 118.03 13.01 123.92 13.01 123.92 18.65 118.03 18.65 118.03 26.27 123.92 26.27 123.92 32 112.08 32"/><polygon class="cls-2" points="113.06 31.03 122.94 31.03 122.94 27.25 117.05 27.25 117.05 17.67 122.94 17.67 122.94 13.98 117.05 13.98 117.05 4.75 122.94 4.75 122.94 0.97 113.06 0.97 113.06 31.03"/><rect class="cls-1" x="102.41" width="5.94" height="32"/><rect class="cls-2" x="103.38" y="0.97" width="3.99" height="30.05"/><polygon class="cls-1" points="88.07 32 88.07 0 99.9 0 99.9 5.73 94.01 5.73 94.01 13.01 99.9 13.01 99.9 18.65 94.01 18.65 94.01 32 88.07 32"/><polygon class="cls-2" points="89.04 31.03 93.04 31.03 93.04 17.67 98.93 17.67 98.93 13.98 93.04 13.98 93.04 4.75 98.93 4.75 98.93 0.97 89.04 0.97 89.04 31.03"/><polygon class="cls-1" points="73.16 32 73.16 0 84.99 0 84.99 5.73 79.1 5.73 79.1 13.01 84.99 13.01 84.99 18.65 79.1 18.65 79.1 26.27 84.99 26.27 84.99 32 73.16 32"/><polygon class="cls-2" points="74.13 31.03 84.02 31.03 84.02 27.25 78.13 27.25 78.13 17.67 84.02 17.67 84.02 13.98 78.13 13.98 78.13 4.75 84.02 4.75 84.02 0.97 74.13 0.97 74.13 31.03"/><polygon class="cls-1" points="60.21 32 60.21 0 66.15 0 66.15 26.27 72.04 26.27 72.04 32 60.21 32"/><polygon class="cls-2" points="71.07 27.25 65.18 27.25 65.18 0.97 61.18 0.97 61.18 31.03 71.07 31.03 71.07 27.25"/><polygon class="cls-1" points="49.26 32 49.26 5.73 45.38 5.73 45.38 0 59.09 0 59.09 5.73 55.2 5.73 55.2 32 49.26 32"/><polygon class="cls-2" points="46.35 4.75 50.24 4.75 50.24 31.03 54.23 31.03 54.23 4.75 58.12 4.75 58.12 0.97 46.35 0.97 46.35 4.75"/><polygon class="cls-1" points="34.75 32 34.75 5.73 30.86 5.73 30.86 0 44.58 0 44.58 5.73 40.69 5.73 40.69 32 34.75 32"/><polygon class="cls-2" points="31.84 4.75 35.72 4.75 35.72 31.03 39.72 31.03 39.72 4.75 43.6 4.75 43.6 0.97 31.84 0.97 31.84 4.75"/><path class="cls-1" d="M26.05,32,25,24.48H21.88L20.82,32h-6L20.08,0H26.8l5.29,32ZM24.21,18.84l-.77-5.47-.77,5.47Z"/><path class="cls-2" d="M20.91,1,15.94,31h4L21,23.5h4.82l1,7.53h4L26,1Zm.64,18.84L23.44,6.36l1.89,13.45Z"/><path class="cls-1" d="M0,32V0H7.8c4.29,0,6.12,1.7,6.12,5.7v6.44a5,5,0,0,1-1.2,3.6,5,5,0,0,1,1.37,3.78v6.4c0,2.83-.68,6.08-6,6.08Zm7.75-5.73a.42.42,0,0,0,.4-.44V19.26c0-.61-.07-.61-.48-.61H5.94v7.62ZM7.63,13c.4,0,.44-.27.44-1.17V6.68c0-.63,0-.95-.4-.95H5.94V13Z"/><path class="cls-2" d="M11.06,15.78C12.39,15.1,13,13.94,13,12.14V5.7C13,2.61,12,1,7.8,1H1V31H8.05c4.13,0,5.07-2,5.07-5.11v-6.4C13.12,17.67,12.52,16.47,11.06,15.78ZM5,4.75h2.7C8.87,4.75,9,5.4,9,6.68v5.16C9,13.17,8.87,14,7.63,14H5ZM9.13,25.83c0,.94-.35,1.42-1.38,1.42H5V17.67h2.7c1.11,0,1.46.6,1.46,1.59Z"/></g></g></svg>